<?xml version="1.0" encoding="UTF-8" standalone="no"?>
<!-- Created with Inkscape (http://www.inkscape.org/) -->

<svg
   xmlns:dc="http://purl.org/dc/elements/1.1/"
   xmlns:cc="http://creativecommons.org/ns#"
   xmlns:rdf="http://www.w3.org/1999/02/22-rdf-syntax-ns#"
   xmlns:svg="http://www.w3.org/2000/svg"
   xmlns="http://www.w3.org/2000/svg"
   xmlns:sodipodi="http://sodipodi.sourceforge.net/DTD/sodipodi-0.dtd"
   xmlns:inkscape="http://www.inkscape.org/namespaces/inkscape"
   width="310.26361"
   height="82.069801"
   id="svg2"
   version="1.1"
   inkscape:version="0.48.4 r9939"
   sodipodi:docname="drawing-1.svg">
  <defs
     id="defs4" />
  <sodipodi:namedview
     id="base"
     pagecolor="#ffffff"
     bordercolor="#666666"
     borderopacity="1.0"
     inkscape:pageopacity="0.0"
     inkscape:pageshadow="2"
     inkscape:zoom="5.6"
     inkscape:cx="126.32952"
     inkscape:cy="14.527788"
     inkscape:document-units="px"
     inkscape:current-layer="layer1"
     showgrid="true"
     inkscape:snap-global="false"
     inkscape:window-width="1200"
     inkscape:window-height="1905"
     inkscape:window-x="0"
     inkscape:window-y="15"
     inkscape:window-maximized="0"
     inkscape:object-nodes="true"
     inkscape:object-paths="true"
     inkscape:snap-smooth-nodes="true"
     fit-margin-top="0"
     fit-margin-left="0"
     fit-margin-right="0"
     fit-margin-bottom="0">
    <inkscape:grid
       type="xygrid"
       id="grid2987"
       empspacing="5"
       visible="true"
       enabled="true"
       snapvisiblegridlinesonly="true"
       originx="-187.97295px"
       originy="-695.8268px" />
  </sodipodi:namedview>
  <metadata
     id="metadata7">
    <rdf:RDF>
      <cc:Work
         rdf:about="">
        <dc:format>image/svg+xml</dc:format>
        <dc:type
           rdf:resource="http://purl.org/dc/dcmitype/StillImage" />
        <dc:title></dc:title>
      </cc:Work>
    </rdf:RDF>
  </metadata>
  <g
     inkscape:label="Layer 1"
     inkscape:groupmode="layer"
     id="layer1"
     transform="translate(-187.97295,-274.46558)">
    <path
       style="fill:none;stroke:#000000;stroke-width:1px;stroke-linecap:butt;stroke-linejoin:miter;stroke-opacity:1"
       d="m 207.5,152.36218 c 0,0 227.5,-55.000002 247.5,-15 10,20 -52.06759,72.36159 -90,70 -32.93455,-2.05043 -83.62448,-39.94567 -70,-70 31.37837,-69.217716 227.5,15 227.5,15"
       id="path2993"
       inkscape:connector-curvature="0"
       sodipodi:nodetypes="cssac" />
    <path
       style="font-size:medium;font-style:normal;font-variant:normal;font-weight:normal;font-stretch:normal;text-indent:0;text-align:start;text-decoration:none;line-height:normal;letter-spacing:normal;word-spacing:normal;text-transform:none;direction:ltr;block-progression:tb;writing-mode:lr-tb;text-anchor:start;baseline-shift:baseline;color:#000000;fill:#a7ac93;fill-opacity:1;stroke:#000000;stroke-width:1;stroke-opacity:1;marker:none;visibility:visible;display:inline;overflow:visible;enable-background:accumulate;font-family:Sans;-inkscape-font-specification:Sans"
       d="M 289.21875,293.6875 C 272.49034,293.43758 256.05893,294.38943 240,294.375 l 0,16 c 22.2209,0.02 43.88886,-1.58424 64.84375,0 1.9576,0.148 3.95594,1.17251 5.90625,2.53125 -2.32995,0.30944 -4.70849,0.63912 -7.125,1.375 -5.89429,1.79494 -12.20277,5.57511 -15.8125,12.25 -3.49623,6.46503 -1.88599,14.0217 1.46875,18.875 3.35474,4.8533 8.06211,8.15044 13.53125,9.71875 9.49668,2.72322 18.8404,-0.88526 24.96875,-6.875 5.11175,-4.99613 8.38441,-11.93625 8.4375,-19.4375 12.36605,0.85087 25.23248,2.18955 38.71875,1.53125 l 0,0.0312 40.0625,0 0,-16 -40.0625,0 -0.21875,0 -0.1875,0 c -13.54357,0.70291 -27.76585,-1.15958 -42.6875,-1.875 -5.10164,-9.55575 -14.01759,-17.20439 -25.78125,-18.09375 -5.63846,-0.42628 -11.26761,-0.63544 -16.84375,-0.71875 z m 31.09375,34.5 c 0.0918,2.80421 -1.19322,6.18713 -3.6875,8.625 -2.80832,2.7448 -6.1333,3.86707 -9.375,2.9375 -1.53543,-0.44029 -3.85151,-2.04724 -4.8125,-3.4375 -2.37265,-3.42435 3.83602,-6.0905 5.84375,-6.71875 3.3091,-1.00769 7.77839,-1.35955 12.03125,-1.40625 z"
       id="path2995"
       inkscape:connector-curvature="0"
       sodipodi:nodetypes="cccscssssscccccccccscccssccc" />
    <path
       style="fill:none;stroke:#ac9d93;stroke-width:16;stroke-linecap:butt;stroke-linejoin:miter;stroke-opacity:1"
       d="m 204.31966,93.2935 c 21.8164,0.0196 43.69485,-1.61538 65.44922,0.0293 11.44093,0.86496 20.73675,12.23392 22.73112,23.32509 2.18962,12.17703 -10.40934,25.384 -23.14772,21.73121 -7.00457,-2.0086 -14.098,-9.85921 -10.16946,-17.12364 4.83145,-8.93403 16.29564,-10.03519 25.41409,-10.12906 18.24967,-0.18786 36.38684,3.11525 54.65575,2.1671 13.35567,0 26.71133,0 40.067,0"
       id="path3811"
       inkscape:connector-curvature="0"
       sodipodi:nodetypes="cssssscc" />
    <path
       style="fill:none;stroke:#000000;stroke-width:1px;stroke-linecap:butt;stroke-linejoin:miter;stroke-opacity:1"
       d="m 310.82075,312.86726 c 8.20351,-0.73526 11.68175,-1.19974 20.82075,-0.37881"
       id="path3813"
       inkscape:connector-curvature="0"
       sodipodi:nodetypes="cc" />
    <path
       style="fill:none;stroke:#000000;stroke-width:1px;stroke-linecap:butt;stroke-linejoin:miter;stroke-opacity:1"
       d="m 320.50508,328.24606 c 6.17634,-0.49432 10.87348,0.12077 15.75575,0.597"
       id="path3815"
       inkscape:connector-curvature="0"
       sodipodi:nodetypes="cc" />
    <path
       style="fill:#99a9a2;fill-opacity:1;stroke:#2b0000;stroke-width:1;stroke-opacity:1"
       d="m 225.35715,292.30415 0,1.84375 -19.5,0 0,5 19.5,0 0,1.8125 7.5,-4.3125 -7.5,-4.34375 z"
       id="path3833"
       inkscape:connector-curvature="0" />
    <path
       style="fill:#99a9a2;fill-opacity:1;stroke:#2b0000;stroke-width:1;stroke-opacity:1"
       d="m 442.5,318.01843 0,1.84375 -19.5,0 0,5 19.5,0 0,1.8125 7.5,-4.3125 -7.5,-4.34375 z"
       id="path3833-6"
       inkscape:connector-curvature="0" />
    <text
       xml:space="preserve"
       style="font-size:20px;font-style:normal;font-weight:normal;line-height:125%;letter-spacing:0px;word-spacing:0px;fill:#000000;fill-opacity:1;stroke:none;font-family:Sans"
       x="200.71429"
       y="254.50504"
       id="text3864"
       sodipodi:linespacing="125%"><tspan
         sodipodi:role="line"
         id="tspan3866"
         x="200.71429"
         y="254.50504" /></text>
    <text
       xml:space="preserve"
       style="font-size:10px;font-style:normal;font-weight:normal;line-height:125%;letter-spacing:0px;word-spacing:0px;fill:#000000;fill-opacity:1;stroke:none;font-family:Sans"
       x="235.72173"
       y="282.06323"
       id="text3868"
       sodipodi:linespacing="125%"><tspan
         sodipodi:role="line"
         id="tspan3870"
         x="235.72173"
         y="282.06323">input</tspan></text>
    <text
       xml:space="preserve"
       style="font-size:10px;font-style:normal;font-weight:normal;line-height:125%;letter-spacing:0px;word-spacing:0px;fill:#000000;fill-opacity:1;stroke:none;font-family:Sans"
       x="403.67603"
       y="299.60657"
       id="text3872"
       sodipodi:linespacing="125%"><tspan
         sodipodi:role="line"
         id="tspan3874"
         x="403.67603"
         y="299.60657">transmitted output</tspan></text>
    <rect
       style="fill:#2fa9a2;fill-opacity:1;stroke:none"
       id="rect3879"
       width="5.3571296"
       height="14.999983"
       x="409.10718"
       y="314.86218" />
    <rect
       style="fill:#ff5555;fill-opacity:1;stroke:none"
       id="rect3879-9"
       width="5.3571296"
       height="15.022304"
       x="240.46875"
       y="294.83984" />
    <path
       style="fill:#917c6f;fill-opacity:1;stroke:none"
       d="m 319.82143,333.16575 c 5.31184,-4.66632 11.43409,-2.25444 15.44643,0.0893 0.24611,-1.2847 0.42539,-2.59168 0.42027,-3.96013 -4.90566,-0.42827 -9.77152,-1.09537 -14.83674,-0.56635 -0.1795,2.11726 -0.57294,3.20828 -1.02996,4.4372 z"
       id="path3899"
       inkscape:connector-curvature="0"
       sodipodi:nodetypes="ccccc" />
    <text
       xml:space="preserve"
       style="font-size:10px;font-style:normal;font-weight:normal;line-height:125%;letter-spacing:0px;word-spacing:0px;fill:#000000;fill-opacity:1;stroke:none;font-family:Sans"
       x="187.14287"
       y="286.64789"
       id="text3901"
       sodipodi:linespacing="125%"><tspan
         sodipodi:role="line"
         id="tspan3903"
         x="187.14287"
         y="286.64789">$u^i$</tspan></text>
    <text
       xml:space="preserve"
       style="font-size:10px;font-style:normal;font-weight:normal;line-height:125%;letter-spacing:0px;word-spacing:0px;fill:#000000;fill-opacity:1;stroke:none;font-family:Sans"
       x="456.42859"
       y="328.07648"
       id="text3905"
       sodipodi:linespacing="125%"><tspan
         sodipodi:role="line"
         id="tspan3907"
         x="456.42859"
         y="328.07648">$u^t$</tspan></text>
    <path
       style="fill:#99a9a2;fill-opacity:1;stroke:#2b0000;stroke-width:1;stroke-opacity:1"
       d="m 210.07143,302.31976 0,1.84375 19.5,0 0,5 -19.5,0 0,1.8125 -7.5,-4.3125 7.5,-4.34375 z"
       id="path3833-3"
       inkscape:connector-curvature="0" />
    <text
       xml:space="preserve"
       style="font-size:10px;font-style:normal;font-weight:normal;line-height:125%;letter-spacing:0px;word-spacing:0px;fill:#000000;fill-opacity:1;stroke:none;font-family:Sans"
       x="190.95668"
       y="339.35471"
       id="text3901-5"
       sodipodi:linespacing="125%"><tspan
         sodipodi:role="line"
         id="tspan3903-3"
         x="190.95668"
         y="339.35471">$u^o$</tspan></text>
    <path
       style="fill:#99a9a2;fill-opacity:1;stroke:#2b0000;stroke-width:1;stroke-miterlimit:4;stroke-opacity:1;stroke-dasharray:none;stroke-dashoffset:0"
       d="m 387.92856,318.03405 0,1.84375 19.5,0 0,5 -19.5,0 0,1.8125 -7.5,-4.3125 7.5,-4.34375 z"
       id="path3833-3-0"
       inkscape:connector-curvature="0" />
    <text
       xml:space="preserve"
       style="font-size:10px;font-style:normal;font-weight:normal;line-height:125%;letter-spacing:0px;word-spacing:0px;fill:#000000;fill-opacity:1;stroke:none;font-family:Sans"
       x="381.45197"
       y="345.42615"
       id="text3905-2"
       sodipodi:linespacing="125%"><tspan
         sodipodi:role="line"
         id="tspan3907-6"
         x="381.45197"
         y="345.42615">$u^r$</tspan></text>
  </g>
</svg>
